<?xml version="1.0" encoding="UTF-8" standalone="no"?>
<!DOCTYPE svg PUBLIC "-//W3C//DTD SVG 1.1//EN"
 "http://www.w3.org/Graphics/SVG/1.1/DTD/svg11.dtd">
<!-- Generated by graphviz version 2.40.1 (20161225.0304)
 -->
<!-- Title: G Pages: 1 -->
<svg width="178pt" height="184pt"
 viewBox="0.00 0.00 177.62 184.00" xmlns="http://www.w3.org/2000/svg" xmlns:xlink="http://www.w3.org/1999/xlink">
<g id="graph0" class="graph" transform="scale(1 1) rotate(0) translate(4 180)">
<title>G</title>
<polygon fill="#ffffff" stroke="transparent" points="-4,4 -4,-180 173.6172,-180 173.6172,4 -4,4"/>
<g id="clust1" class="cluster">
<title>cluster_Global</title>
<path fill="none" stroke="#c0c0c0" d="M20,-8C20,-8 149.6172,-8 149.6172,-8 155.6172,-8 161.6172,-14 161.6172,-20 161.6172,-20 161.6172,-156 161.6172,-156 161.6172,-162 155.6172,-168 149.6172,-168 149.6172,-168 20,-168 20,-168 14,-168 8,-162 8,-156 8,-156 8,-20 8,-20 8,-14 14,-8 20,-8"/>
<text text-anchor="middle" x="84.8086" y="-155.2" font-family="Times,serif" font-size="11.00" fill="#c0c0c0">Global</text>
</g>
<g id="clust2" class="cluster">
<title>cluster_\Utilities</title>
<path fill="none" stroke="#c0c0c0" d="M28,-16C28,-16 141.6172,-16 141.6172,-16 147.6172,-16 153.6172,-22 153.6172,-28 153.6172,-28 153.6172,-129 153.6172,-129 153.6172,-135 147.6172,-141 141.6172,-141 141.6172,-141 28,-141 28,-141 22,-141 16,-135 16,-129 16,-129 16,-28 16,-28 16,-22 22,-16 28,-16"/>
<text text-anchor="middle" x="84.8086" y="-128.2" font-family="Times,serif" font-size="11.00" fill="#c0c0c0">Utilities</text>
</g>
<!-- \\Utilities\\EmailReaderError -->
<g id="node1" class="node">
<title>\\Utilities\\EmailReaderError</title>
<polygon fill="none" stroke="#000000" points="145.4264,-114 24.1908,-114 24.1908,-78 145.4264,-78 145.4264,-114"/>
<text text-anchor="middle" x="84.8086" y="-92.7" font-family="Courier,monospace" font-size="11.00" fill="#000000">EmailReaderError</text>
</g>
<!-- \\Utilities\\EmailReader -->
<g id="node2" class="node">
<title>\\Utilities\\EmailReader</title>
<polygon fill="none" stroke="#000000" points="128.9213,-60 40.6959,-60 40.6959,-24 128.9213,-24 128.9213,-60"/>
<text text-anchor="middle" x="84.8086" y="-38.7" font-family="Courier,monospace" font-size="11.00" fill="#000000">EmailReader</text>
</g>
</g>
</svg>
